<svg xmlns="http://www.w3.org/2000/svg" width="473" height="353" viewBox="0 0 473 353">
<g>
<path d="M 0.00 0.00 L 473.00 0.00 L 473.00 353.00 L 0.00 353.00 ZM 170.47 232.12 C182.83,235.17 199.70,234.25 212.50,229.85 C215.80,228.71 222.17,225.81 226.65,223.39 C235.80,218.47 238.02,218.14 243.02,220.98 C250.29,225.12 259.15,229.25 262.75,230.18 C275.49,233.48 280.91,234.14 291.00,233.61 C307.48,232.75 317.35,228.77 325.74,219.60 C334.01,210.55 335.97,201.46 331.60,192.45 C329.13,187.34 327.52,181.18 327.65,177.25 C327.69,175.99 327.12,175.00 326.36,175.00 C325.61,175.00 324.97,174.44 324.93,173.75 C324.89,173.06 324.47,173.40 324.00,174.50 C323.48,175.70 323.11,167.41 323.07,153.81 C323.03,140.14 323.39,130.88 323.97,130.52 C324.50,130.19 325.24,131.17 325.61,132.71 C326.56,136.69 327.13,137.40 328.11,135.86 C329.23,134.09 329.25,129.27 328.13,128.58 C327.65,128.29 326.95,125.70 326.57,122.82 C326.19,119.95 325.02,115.16 323.97,112.16 C322.91,109.17 322.31,106.31 322.62,105.80 C322.93,105.30 322.09,103.22 320.74,101.19 C318.48,97.78 317.16,95.55 311.74,86.00 C308.21,79.76 301.70,72.79 294.52,67.55 C286.28,61.53 274.29,54.00 272.94,54.00 C271.45,54.00 271.85,56.63 273.55,58.04 C274.40,58.74 274.86,59.92 274.58,60.66 C274.03,62.09 274.75,62.29 279.56,62.04 C282.10,61.91 283.69,62.98 289.02,68.44 C292.54,72.05 295.99,75.00 296.68,75.00 C298.02,75.00 302.50,80.50 302.50,82.14 C302.50,82.68 303.45,83.88 304.62,84.81 C307.74,87.30 313.42,98.30 316.60,108.00 C319.34,116.35 319.39,117.04 319.94,147.35 C320.25,164.32 320.20,178.69 319.83,179.29 C319.35,180.05 318.73,180.02 317.71,179.18 C316.55,178.21 316.16,172.59 315.70,149.74 C315.12,121.13 313.95,111.15 311.09,110.20 C310.04,109.85 309.87,110.31 310.43,112.12 C312.52,118.95 312.92,124.63 312.96,148.06 C312.99,167.05 312.68,174.02 311.75,175.20 C310.81,176.38 307.93,176.90 300.25,177.29 C294.41,177.59 289.75,177.41 289.43,176.88 C289.11,176.37 289.62,173.64 290.56,170.82 C291.91,166.76 292.16,163.42 291.76,154.97 C291.30,145.32 290.93,143.65 288.00,138.16 C283.12,129.00 271.12,118.00 266.01,118.00 C263.45,118.00 262.09,114.61 262.76,109.88 C264.67,96.26 261.69,87.22 253.12,80.69 C245.02,74.51 237.33,73.41 227.63,77.04 C221.62,79.29 214.84,85.75 212.42,91.53 C210.90,95.16 210.61,106.18 211.94,109.50 C213.34,112.98 210.91,116.26 204.54,119.50 C197.45,123.10 188.94,131.89 185.76,138.89 C183.20,144.51 182.81,146.68 182.48,156.80 C182.20,165.47 182.47,169.00 183.55,171.11 C185.33,174.54 185.42,177.69 183.75,178.26 C183.06,178.50 181.15,178.31 179.51,177.85 C177.86,177.38 173.96,177.00 170.84,177.00 C170.14,177.00 169.50,177.01 168.91,177.02 C166.71,177.07 165.20,177.10 164.18,176.41 C161.96,174.93 161.97,170.09 162.02,154.82 C162.03,152.92 162.03,150.87 162.04,148.64 C162.06,130.11 162.49,119.60 163.38,115.50 C165.24,106.96 169.67,96.45 174.24,89.67 C178.70,83.07 178.51,81.07 173.88,85.81 C172.17,87.56 170.31,88.69 169.74,88.34 C169.10,87.95 168.99,88.18 169.45,88.92 C169.90,89.65 169.35,90.96 168.09,92.13 C166.78,93.35 166.05,95.13 166.18,96.83 C166.30,98.33 165.98,100.22 165.48,101.03 C163.55,104.13 160.40,114.70 160.12,119.00 C159.96,121.47 159.42,123.65 158.91,123.83 C158.41,124.02 157.95,126.27 157.88,128.83 C157.78,133.03 157.69,133.20 157.00,130.50 C156.45,128.35 156.20,129.85 156.12,135.81 C156.04,141.12 156.36,143.90 157.00,143.50 C158.12,142.81 158.46,176.21 157.34,177.32 C156.98,177.69 156.19,177.57 155.58,177.06 C154.81,176.43 154.52,167.77 154.64,148.82 C154.83,119.71 155.10,116.51 158.11,108.17 C159.17,105.24 160.22,101.41 160.44,99.67 C161.36,92.53 163.55,89.47 177.90,75.24 C182.50,70.69 185.85,68.11 186.74,68.46 C188.71,69.21 190.58,67.98 188.97,66.98 C188.09,66.44 188.42,65.85 190.11,64.94 C192.21,63.83 192.35,63.86 191.26,65.18 C190.58,66.01 190.24,66.91 190.51,67.18 C190.79,67.46 190.11,68.50 189.01,69.49 C186.76,71.53 186.08,75.01 188.29,73.17 C189.00,72.59 193.84,69.88 199.04,67.16 C208.72,62.09 220.14,58.03 224.86,57.96 C226.31,57.95 228.57,57.34 229.87,56.61 L 232.25 55.30 L 229.87 54.66 C228.57,54.31 225.59,54.02 223.25,54.01 C218.48,54.00 217.54,52.36 221.75,51.43 C227.01,50.26 228.00,49.86 228.00,48.93 C228.00,45.92 208.26,50.78 196.50,56.68 C177.03,66.46 163.15,80.59 154.37,99.57 C150.65,107.62 147.47,118.40 146.48,126.29 C145.83,131.48 145.89,131.68 148.15,131.59 L 150.50 131.50 L 150.77 152.36 C151.02,171.68 150.90,173.35 149.17,174.86 C148.03,175.87 147.04,178.57 146.60,181.88 C146.20,184.96 144.85,188.80 143.45,190.86 C141.46,193.79 141.00,195.71 141.00,201.11 C141.00,209.45 142.61,213.32 149.00,220.31 C154.72,226.56 160.25,229.61 170.47,232.12 ZM 223.85 189.90 C220.35,191.12 214.14,191.19 209.36,190.05 C201.25,188.11 192.42,179.51 188.62,169.83 C185.50,161.88 185.01,151.44 187.59,147.51 C188.46,146.18 188.91,144.67 188.60,144.16 C187.92,143.06 190.40,140.73 191.29,141.63 C191.63,141.96 191.65,143.48 191.35,145.00 C191.05,146.52 191.26,148.04 191.82,148.39 C192.39,148.74 193.14,147.59 193.54,145.76 C195.24,137.91 200.48,130.78 208.45,125.49 C214.79,121.28 217.58,121.16 224.90,124.75 C232.45,128.46 241.30,128.57 248.50,125.05 C251.25,123.71 254.40,122.32 255.50,121.96 C258.08,121.14 265.86,124.97 271.00,129.62 C275.46,133.65 281.00,143.92 281.00,148.16 C281.00,149.72 281.45,151.00 282.00,151.00 C282.55,151.00 283.01,149.76 283.01,148.25 C283.03,144.60 284.04,141.00 285.04,141.00 C286.58,141.00 288.08,147.80 288.27,155.63 C288.50,165.50 285.85,172.72 279.33,179.98 C273.15,186.85 267.40,190.06 260.09,190.73 C252.04,191.46 249.00,190.60 249.00,187.59 C249.00,185.35 249.39,185.20 256.25,184.84 C262.95,184.49 263.94,184.14 269.25,180.20 C272.41,177.86 275.00,175.50 275.00,174.97 C275.00,173.09 272.56,174.03 269.36,177.14 C266.98,179.44 264.71,180.50 260.85,181.11 C253.52,182.27 252.67,180.43 258.88,176.88 C265.98,172.83 271.00,165.12 271.00,158.28 C271.00,154.20 267.72,155.86 266.78,160.42 C265.45,166.82 262.49,170.53 256.46,173.39 C249.39,176.73 246.79,176.68 242.77,173.09 L 239.50 170.17 L 239.00 158.42 C238.32,142.47 236.53,142.10 235.60,157.72 C235.19,164.57 234.35,170.34 233.59,171.50 C231.50,174.69 225.82,176.30 221.10,175.03 C215.43,173.50 208.19,166.05 207.37,160.90 C206.68,156.62 205.42,155.18 203.79,156.81 C202.28,158.32 205.63,168.15 208.85,171.65 C210.31,173.22 212.85,175.49 214.50,176.69 C217.04,178.53 217.29,179.07 216.10,180.18 C214.95,181.27 214.84,181.27 215.48,180.15 C215.97,179.27 215.27,179.43 213.51,180.58 L 210.78 182.37 L 213.03 183.21 C214.27,183.67 217.37,184.17 219.91,184.32 C227.52,184.77 229.70,187.86 223.85,189.90 ZM 263.35 305.07 C265.63,306.11 268.40,306.96 269.50,306.97 C277.47,307.04 285.96,300.55 289.01,292.06 C290.80,287.08 290.84,286.22 289.53,281.80 C286.19,270.55 280.30,265.49 270.58,265.52 C262.98,265.53 258.66,267.85 254.38,274.21 C250.27,280.31 249.50,284.77 251.42,291.38 C253.21,297.53 257.44,302.39 263.35,305.07 ZM 287.50 221.94 C278.36,226.06 259.79,225.11 249.93,220.01 C245.48,217.70 240.96,213.88 241.55,212.92 C243.51,209.75 261.93,200.11 271.45,197.28 C277.99,195.33 289.95,195.40 293.84,197.42 C297.68,199.40 301.00,204.06 301.00,207.45 C301.00,213.29 296.88,217.71 287.50,221.94 ZM 214.61 222.53 C212.68,224.46 199.03,225.46 193.00,224.11 C185.68,222.47 177.37,217.43 175.15,213.27 C173.51,210.22 173.73,203.83 175.56,201.22 C179.68,195.34 192.88,193.73 204.51,197.69 C216.10,201.63 231.00,210.27 231.00,213.04 C231.00,215.01 226.11,219.00 223.70,219.00 C220.36,219.00 216.74,220.41 214.61,222.53 ZM 304.84 226.27 C303.55,226.57 301.15,227.20 299.50,227.67 C295.93,228.69 290.00,228.25 290.00,226.96 C290.00,226.46 291.30,225.38 292.89,224.56 C296.94,222.46 303.74,214.45 304.54,210.83 C305.60,206.00 303.18,199.34 298.90,195.28 C296.80,193.30 295.32,191.30 295.60,190.85 C295.87,190.39 295.41,190.29 294.55,190.62 C293.52,191.01 293.00,190.64 293.00,189.49 C293.00,187.96 293.75,187.85 299.50,188.46 C303.45,188.89 306.00,188.78 306.00,188.20 C306.00,187.05 301.17,186.00 295.82,186.00 C290.98,186.00 291.57,184.52 297.42,181.93 C306.41,177.96 321.55,183.36 327.42,192.63 C329.87,196.50 330.18,197.82 329.79,202.79 C329.46,207.12 328.72,209.23 326.73,211.50 C325.29,213.15 323.19,215.62 322.06,217.00 C320.08,219.40 319.95,219.43 318.56,217.64 C317.20,215.88 316.85,216.05 312.15,220.76 C309.41,223.50 306.12,225.98 304.84,226.27 ZM 184.41 226.91 C182.72,228.44 177.52,228.69 174.00,227.40 C172.07,226.69 169.76,226.09 168.85,226.06 C167.94,226.03 164.92,223.50 162.12,220.45 C156.84,214.66 154.36,208.69 155.44,204.37 C155.87,202.66 155.62,202.00 154.52,202.00 C153.50,202.00 152.96,203.06 152.88,205.25 C152.71,210.07 152.93,211.18 154.76,214.73 C155.96,217.04 156.13,218.27 155.36,219.04 C153.81,220.59 146.49,211.54 145.10,206.37 C142.65,197.29 147.25,188.42 157.00,183.44 C161.43,181.17 175.32,180.29 180.37,181.96 C183.50,182.99 183.80,183.34 182.57,184.58 C181.78,185.36 179.21,186.00 176.82,186.01 C170.71,186.03 163.05,188.58 159.82,191.67 C156.19,195.15 157.30,196.76 161.12,193.55 C166.39,189.12 180.12,186.27 181.31,189.36 C181.63,190.20 180.38,191.54 178.05,192.85 C173.96,195.15 171.95,197.14 171.64,199.20 C171.53,199.92 171.10,201.05 170.69,201.71 C169.57,203.49 169.65,211.10 170.81,214.06 C171.93,216.93 177.02,221.59 182.01,224.29 C183.87,225.31 184.92,226.45 184.41,226.91 ZM 241.75 123.83 C241.55,123.88 241.36,123.93 241.17,123.98 C238.95,124.54 237.80,124.83 236.66,124.81 C235.34,124.78 234.03,124.34 231.08,123.42 C223.41,121.01 219.00,115.33 219.00,107.85 C219.00,104.54 219.27,103.87 220.20,104.80 C222.46,107.06 223.19,106.00 222.85,101.00 C222.63,97.92 222.91,96.00 223.56,96.00 C224.15,96.00 225.90,94.67 227.45,93.05 C229.29,91.13 231.98,89.74 235.18,89.05 C242.31,87.53 243.11,87.69 247.26,91.55 C250.58,94.64 251.05,95.66 251.26,100.27 C251.43,104.06 252.10,106.11 253.67,107.71 C256.53,110.63 255.76,113.30 250.53,118.53 C247.71,121.34 244.90,123.04 241.75,123.83 ZM 276.32 301.88 C271.32,304.45 263.73,302.52 258.63,297.39 C255.08,293.81 254.00,291.07 254.01,285.68 C254.02,273.52 267.55,265.24 277.90,271.07 C289.38,277.51 288.44,295.63 276.32,301.88 ZM 200.60 287.65 L 200.50 307.00 L 202.75 307.00 C204.97,307.00 205.00,306.83 205.00,293.50 C205.00,278.11 205.81,276.85 210.93,284.25 C214.71,289.73 216.77,292.00 217.93,292.00 C218.45,292.00 220.99,289.30 223.58,286.00 C226.31,282.52 229.07,280.00 230.15,280.00 C231.86,280.00 232.00,281.01 232.00,293.00 C232.00,303.89 232.24,306.00 233.50,306.00 C234.78,306.00 235.00,303.17 235.00,286.50 C235.00,267.98 234.90,267.00 233.09,267.00 C231.81,267.00 229.35,269.75 225.60,275.39 C222.53,280.00 219.35,284.04 218.52,284.35 C217.11,284.89 214.60,281.84 206.24,269.37 C203.86,265.83 202.59,265.24 201.41,267.15 C201.02,267.78 200.65,277.01 200.60,287.65 ZM 304.61 305.42 C305.33,307.31 306.19,307.41 307.80,305.80 C308.60,305.00 309.00,300.66 309.00,292.88 C309.00,284.40 309.35,281.05 310.25,280.74 C310.94,280.51 313.46,282.95 315.85,286.16 C318.24,289.37 320.56,292.00 321.02,292.00 C321.47,292.00 323.71,294.81 326.00,298.25 C334.17,310.49 335.00,309.35 335.00,285.87 C335.00,268.30 334.87,266.88 333.25,267.19 C331.72,267.48 331.44,269.18 331.00,280.77 C330.73,288.05 330.16,294.01 329.75,294.01 C329.34,294.00 328.66,294.00 328.25,294.00 C327.56,293.99 324.22,289.60 312.47,273.25 C309.55,269.18 307.28,267.00 305.99,267.00 C304.08,267.00 304.00,267.70 304.00,285.42 C304.00,295.55 304.27,304.55 304.61,305.42 ZM 138.00 304.84 C138.00,307.84 140.95,305.48 142.81,301.00 L 144.89 296.00 L 151.69 296.01 C161.22,296.03 162.52,296.56 164.30,301.09 C165.96,305.30 168.00,306.31 168.00,302.92 C168.00,300.26 156.29,268.90 154.70,267.29 C154.04,266.62 153.04,266.39 152.47,266.79 C151.41,267.52 138.00,302.79 138.00,304.84 ZM 244.38 205.77 C240.46,208.64 236.97,211.00 236.63,211.00 C236.29,211.00 234.32,209.52 232.25,207.70 C230.19,205.89 226.61,202.94 224.30,201.16 C221.99,199.37 220.32,197.34 220.59,196.64 C220.86,195.94 223.07,194.39 225.50,193.21 C227.93,192.03 231.69,189.47 233.84,187.52 L 237.76 183.98 L 239.30 186.34 C240.15,187.63 243.24,190.21 246.17,192.07 C253.46,196.70 254.00,197.29 252.63,199.07 C252.01,199.87 248.29,202.89 244.38,205.77 ZM 351.46 300.54 C351.93,304.29 352.59,306.00 353.57,306.00 C354.63,306.00 355.00,304.63 355.00,300.70 C355.00,295.86 355.34,295.08 358.91,291.59 C361.06,289.49 363.42,287.97 364.15,288.22 C364.89,288.46 368.42,292.42 372.00,297.00 C375.58,301.58 379.07,305.52 379.75,305.75 C382.79,306.76 380.43,301.82 373.98,293.66 C370.14,288.80 367.00,284.51 367.00,284.14 C367.00,283.76 370.15,280.32 374.00,276.50 C380.06,270.49 382.76,265.96 380.25,266.02 C379.84,266.02 374.60,270.75 368.62,276.52 C362.63,282.28 357.39,287.00 356.98,287.00 C355.54,287.00 355.00,283.83 355.00,275.48 C355.00,267.69 354.04,264.50 352.47,267.04 C351.46,268.68 350.69,294.34 351.46,300.54 ZM 107.00 305.84 C113.78,307.81 127.00,304.88 127.00,301.41 C127.00,298.91 124.43,297.96 120.90,299.14 C119.03,299.76 117.07,300.66 116.55,301.14 C113.66,303.77 105.60,301.00 99.25,295.19 C95.23,291.52 95.00,291.00 95.00,285.79 C95.00,281.04 95.46,279.69 98.39,276.00 C100.26,273.64 103.23,271.10 105.01,270.36 C109.32,268.54 116.41,268.64 120.14,270.57 C121.81,271.44 123.93,271.85 124.84,271.50 C126.26,270.94 126.12,270.53 123.84,268.55 C118.87,264.25 107.63,264.18 101.39,268.40 C97.50,271.03 93.37,275.89 92.03,279.43 C88.23,289.42 95.67,302.56 107.00,305.84 ZM 295.49 82.78 C298.80,86.75 301.78,90.00 302.13,90.00 C303.01,90.00 302.64,84.79 301.66,83.23 C301.22,82.54 300.47,82.21 299.99,82.51 C299.51,82.80 297.08,80.87 294.60,78.21 C292.11,75.54 285.89,70.60 280.79,67.21 C275.68,63.82 270.84,60.47 270.02,59.77 C269.21,59.07 268.31,58.65 268.02,58.84 C267.11,59.43 260.00,58.01 260.00,57.23 C260.00,56.82 258.54,55.84 256.75,55.04 C253.42,53.56 249.25,53.53 244.30,54.95 L 241.50 55.75 L 244.32 56.87 C245.86,57.49 248.13,58.00 249.35,58.00 C256.27,58.00 270.58,63.51 279.95,69.79 C283.00,71.83 286.40,73.96 287.49,74.53 C288.59,75.09 292.19,78.80 295.49,82.78 ZM 228.80 85.43 C226.86,86.35 224.37,87.94 223.26,88.97 C221.28,90.81 221.25,90.80 221.25,88.40 C221.25,86.80 222.32,85.21 224.38,83.78 C226.09,82.58 227.78,81.19 228.12,80.69 C228.47,80.20 231.62,79.56 235.13,79.28 C242.53,78.68 246.74,80.08 252.31,84.96 C255.53,87.79 255.79,88.35 254.50,89.65 C253.20,90.94 252.55,90.73 249.09,87.95 C244.07,83.92 234.49,82.73 228.80,85.43 ZM 156.76 291.17 C155.23,292.14 150.59,292.25 149.67,291.33 C147.93,289.60 151.13,279.00 153.39,279.00 C156.76,279.00 159.64,289.34 156.76,291.17 ZM 232.75 49.31 C235.47,50.02 240.67,50.06 242.42,49.39 C245.87,48.07 243.67,47.00 237.50,47.00 C231.42,47.00 228.80,48.28 232.75,49.31 ZM 212.84 56.45 C212.00,58.29 210.91,59.00 208.90,59.00 C205.97,59.00 204.18,57.37 205.64,56.03 C206.11,55.60 208.19,54.94 210.25,54.58 C213.97,53.91 213.99,53.93 212.84,56.45 ZM 307.52 103.71 C308.57,106.21 309.37,107.03 310.08,106.32 C311.18,105.22 308.35,98.00 306.81,98.00 C305.61,98.00 305.81,99.62 307.52,103.71 ZM 247.70 50.36 C248.08,50.75 249.02,50.82 249.78,50.53 C250.54,50.24 251.80,50.00 252.58,50.00 C253.36,50.00 254.00,49.55 254.00,49.00 C254.00,48.45 252.43,48.00 250.50,48.00 C247.17,48.00 246.17,48.84 247.70,50.36 ZM 282.10 137.88 C283.75,139.21 283.93,139.97 283.12,142.01 C282.40,143.81 282.11,144.01 282.06,142.71 C282.03,141.73 281.30,139.86 280.45,138.56 C279.19,136.65 279.14,136.04 280.20,135.43 C280.91,135.02 281.18,135.03 280.79,135.46 C280.40,135.90 280.99,136.98 282.10,137.88 ZM 151.00 126.00 C151.00,127.10 150.55,128.00 150.00,128.00 C149.45,128.00 149.00,127.10 149.00,126.00 C149.00,124.90 149.45,124.00 150.00,124.00 C150.55,124.00 151.00,124.90 151.00,126.00 ZM 201.15 60.75 C201.79,61.39 201.60,61.94 200.60,62.32 C199.75,62.65 198.82,62.51 198.52,62.03 C197.71,60.72 200.01,59.61 201.15,60.75 ZM 290.50 73.00 C290.84,73.55 291.57,74.00 292.12,74.00 C292.67,74.00 292.84,73.55 292.50,73.00 C292.16,72.45 291.43,72.00 290.88,72.00 C290.33,72.00 290.16,72.45 290.50,73.00 Z" fill="rgb(24,43,52)"/>
<path d="M 153.58 119.87 C154.10,121.08 154.52,120.60 155.20,118.00 C155.40,117.26 155.73,116.11 156.15,114.73 C154.95,120.41 154.78,127.97 154.64,148.82 C154.52,167.77 154.81,176.43 155.58,177.06 C156.19,177.57 156.98,177.69 157.34,177.32 C158.46,176.21 158.12,142.81 157.00,143.50 C156.36,143.90 156.04,141.12 156.12,135.81 C156.20,129.85 156.45,128.35 157.00,130.50 C157.69,133.20 157.78,133.03 157.88,128.83 C157.95,126.27 158.41,124.02 158.91,123.83 C159.33,123.68 159.78,122.14 160.01,120.19 C159.76,126.16 159.48,136.63 159.31,148.00 C159.05,164.77 158.53,178.81 158.17,179.18 C157.80,179.55 156.82,180.00 156.00,180.18 C154.69,180.46 154.50,176.84 154.50,152.26 C154.50,134.10 154.14,124.01 153.50,124.00 C152.86,124.00 152.41,134.58 152.24,153.25 C152.02,179.16 151.80,182.64 150.33,183.73 C149.10,184.64 148.31,184.67 147.33,183.86 C146.86,183.47 146.55,183.31 146.34,183.40 C146.45,182.88 146.54,182.37 146.60,181.88 C147.04,178.57 148.03,175.87 149.17,174.86 C150.90,173.35 151.02,171.68 150.77,152.36 L 150.50 131.50 L 148.15 131.59 C147.62,131.61 147.21,131.61 146.90,131.54 C147.48,131.00 148.20,128.69 148.54,126.23 C150.24,113.93 157.72,94.00 160.64,94.00 C161.39,94.00 162.00,93.61 162.00,93.12 C162.00,92.68 162.98,91.31 165.11,88.82 C161.87,92.95 160.96,95.67 160.44,99.67 C160.36,100.31 160.16,101.24 159.90,102.30 C160.23,100.69 160.25,99.66 159.93,99.46 C158.03,98.28 152.27,116.82 153.58,119.87 ZM 228.80 85.43 C234.49,82.73 244.07,83.92 249.09,87.95 C252.55,90.73 253.20,90.94 254.50,89.65 C255.31,88.83 255.51,88.30 254.73,87.32 C256.44,89.03 257.86,90.76 258.56,92.13 C260.19,95.27 260.52,105.00 259.00,105.00 C258.45,105.00 258.00,104.10 258.00,103.00 C258.00,101.90 257.52,101.00 256.92,101.00 C256.29,101.00 255.93,102.76 256.06,105.25 C256.15,107.25 255.89,109.25 255.31,111.14 C255.34,109.93 254.77,108.84 253.67,107.71 C252.10,106.11 251.43,104.06 251.26,100.27 C251.23,99.63 251.20,99.05 251.15,98.53 C251.68,100.20 253.00,100.98 253.00,99.03 C253.00,98.50 253.68,98.32 254.50,98.64 C256.81,99.53 256.28,97.47 253.52,94.85 C252.15,93.56 251.03,92.01 251.02,91.42 C251.01,90.82 249.76,89.70 248.25,88.92 C246.74,88.14 245.18,87.05 244.79,86.50 C243.85,85.19 231.14,85.20 230.21,86.52 C229.82,87.08 228.25,88.09 226.72,88.76 C225.19,89.43 223.68,90.68 223.35,91.53 C222.20,94.52 224.06,94.33 227.37,91.12 C230.05,88.53 231.80,87.77 236.15,87.32 C240.65,86.86 241.59,86.91 244.63,89.32 C242.32,87.71 240.53,87.91 235.18,89.05 C231.98,89.74 229.29,91.13 227.45,93.05 C225.90,94.67 224.15,96.00 223.56,96.00 C222.91,96.00 222.63,97.92 222.85,101.00 C223.19,106.00 222.46,107.06 220.20,104.80 C219.27,103.87 219.00,104.54 219.00,107.85 C219.00,111.06 219.81,113.94 221.35,116.37 C219.25,113.37 218.00,109.66 218.00,105.48 C218.00,100.60 216.07,99.98 215.91,104.81 L 215.83 107.50 L 214.91 104.50 C214.33,102.59 214.40,99.56 215.09,96.15 C216.47,89.42 223.30,81.80 229.50,80.11 C234.99,78.60 241.41,78.72 245.42,80.40 C245.77,80.55 246.14,80.73 246.53,80.93 C243.24,79.32 239.83,78.90 235.13,79.28 C231.62,79.56 228.47,80.20 228.12,80.69 C227.78,81.19 226.09,82.58 224.38,83.78 C222.32,85.21 221.25,86.80 221.25,88.40 C221.25,90.80 221.28,90.81 223.26,88.97 C224.37,87.94 226.86,86.35 228.80,85.43 ZM 320.09 105.17 C322.51,105.89 322.60,105.31 322.52,104.65 C322.69,105.20 322.74,105.61 322.62,105.80 C322.31,106.31 322.91,109.17 323.97,112.16 C325.02,115.16 326.19,119.95 326.57,122.82 C326.95,125.70 327.65,128.29 328.13,128.58 C329.25,129.27 329.23,134.09 328.11,135.86 C328.01,136.01 327.92,136.14 327.83,136.25 C327.92,136.10 328.02,135.93 328.13,135.72 C329.35,133.56 328.88,128.42 327.50,128.72 C326.37,128.97 325.73,132.82 326.30,135.21 C326.09,134.60 325.86,133.77 325.61,132.71 C325.24,131.17 324.50,130.19 323.97,130.52 C323.39,130.88 323.03,140.14 323.07,153.81 C323.11,167.41 323.48,175.70 324.00,174.50 C324.47,173.40 324.89,173.06 324.93,173.75 C324.97,174.44 325.61,175.00 326.36,175.00 C327.12,175.00 327.69,175.99 327.65,177.25 C327.60,178.80 327.82,180.71 328.26,182.76 C327.73,182.24 327.04,182.44 326.58,183.64 C326.01,185.14 325.80,185.13 324.06,183.56 C322.29,181.95 322.13,179.66 321.72,149.17 C321.31,119.29 321.09,115.87 319.09,109.10 C317.89,105.03 316.48,100.89 315.95,99.91 C314.64,97.45 314.75,96.97 316.50,97.64 C317.91,98.18 318.27,97.75 317.50,96.03 C318.75,98.13 319.63,99.52 320.74,101.19 C320.79,101.26 320.83,101.32 320.87,101.39 C320.58,101.15 320.27,101.00 319.96,101.00 C318.69,101.00 318.74,102.65 320.09,105.17 ZM 191.91 69.17 C191.37,70.18 191.17,71.00 191.47,71.00 C191.62,71.00 192.62,70.54 194.12,69.78 C191.08,71.44 188.76,72.78 188.29,73.17 C186.08,75.01 186.76,71.53 189.01,69.49 C190.11,68.50 190.79,67.46 190.51,67.18 C190.24,66.91 190.58,66.01 191.26,65.18 C192.35,63.86 192.21,63.83 190.11,64.94 C188.42,65.85 188.09,66.44 188.97,66.98 C190.58,67.98 188.71,69.21 186.74,68.46 C185.85,68.11 182.50,70.69 177.90,75.24 C175.34,77.79 173.16,79.98 171.30,81.90 C173.21,79.82 175.44,77.43 178.00,74.70 C191.11,60.75 202.97,54.71 225.75,50.39 C228.68,49.83 228.61,48.20 225.90,48.02 C227.23,48.05 228.00,48.34 228.00,48.93 C228.00,49.86 227.01,50.26 221.75,51.43 C217.54,52.36 218.48,54.00 223.25,54.01 C225.59,54.02 228.57,54.31 229.87,54.66 L 232.25 55.30 L 229.87 56.61 C228.57,57.34 226.31,57.95 224.86,57.96 C226.31,57.95 228.62,57.25 230.00,56.42 C232.33,55.01 232.04,54.95 225.52,55.56 C214.46,56.59 194.27,64.77 191.91,69.17 ZM 179.21 181.65 C183.18,181.91 185.04,182.61 188.86,184.43 C192.24,186.05 195.00,187.94 195.00,188.65 C195.00,190.37 191.76,192.00 188.32,192.01 C180.15,192.02 171.06,198.57 169.96,205.23 C169.96,205.26 169.95,205.28 169.95,205.30 C170.05,203.69 170.30,202.34 170.69,201.71 C171.10,201.05 171.53,199.92 171.64,199.20 C171.95,197.14 173.96,195.15 178.05,192.85 C180.38,191.54 181.63,190.20 181.31,189.36 C180.12,186.27 166.39,189.12 161.12,193.55 C157.30,196.76 156.19,195.15 159.82,191.67 C163.05,188.58 170.71,186.03 176.82,186.01 C179.21,186.00 181.78,185.36 182.57,184.58 C183.80,183.34 183.50,182.99 180.37,181.96 C180.02,181.84 179.63,181.74 179.21,181.65 ZM 160.72 292.88 C159.34,294.26 147.35,294.37 146.51,293.02 C146.18,292.48 147.57,287.76 149.62,282.53 C153.68,272.14 154.63,271.72 157.03,279.24 C157.78,281.58 159.16,285.36 160.11,287.63 C161.38,290.68 161.54,292.06 160.72,292.88 ZM 286.37 142.66 C285.95,141.61 285.50,141.00 285.04,141.00 C284.04,141.00 283.03,144.60 283.01,148.25 C283.01,149.76 282.55,151.00 282.00,151.00 C281.45,151.00 281.00,149.72 281.00,148.16 C281.00,143.92 275.46,133.65 271.00,129.62 C266.33,125.40 259.48,121.84 256.33,121.85 C256.73,121.60 257.00,121.04 257.00,120.39 C257.00,116.58 271.00,122.99 278.30,130.16 C282.25,134.03 284.83,137.92 286.37,142.66 ZM 186.69 149.51 C188.28,138.74 193.40,130.99 203.05,124.51 C206.88,121.93 208.31,121.55 213.36,121.74 C214.85,121.79 216.28,121.96 217.69,122.24 C214.73,121.93 212.22,122.99 208.45,125.49 C200.48,130.78 195.24,137.91 193.54,145.76 C193.14,147.59 192.39,148.74 191.82,148.39 C191.26,148.04 191.05,146.52 191.35,145.00 C191.65,143.48 191.63,141.96 191.29,141.63 C190.40,140.73 187.92,143.06 188.60,144.16 C188.91,144.67 188.46,146.18 187.59,147.51 C187.23,148.06 186.93,148.73 186.69,149.51 ZM 302.85 180.66 C300.90,180.80 299.06,181.21 297.42,181.93 C291.57,184.52 290.98,186.00 295.82,186.00 C301.17,186.00 306.00,187.05 306.00,188.20 C306.00,188.78 303.45,188.89 299.50,188.46 C293.75,187.85 293.00,187.96 293.00,189.49 C293.00,190.64 293.52,191.01 294.55,190.62 C295.41,190.29 295.87,190.39 295.60,190.85 C295.32,191.30 296.80,193.30 298.90,195.28 C300.98,197.26 302.62,199.84 303.64,202.54 C300.96,196.52 294.02,192.00 285.91,192.00 C283.59,192.00 281.67,191.30 280.51,190.01 C278.75,188.07 278.84,187.97 285.25,184.97 C291.24,182.17 297.20,180.73 302.85,180.66 ZM 200.60 287.65 C200.64,280.10 200.83,273.27 201.08,269.71 C200.65,278.02 200.96,304.12 201.66,305.26 C203.28,307.88 204.00,303.00 204.00,289.44 C204.00,280.95 204.38,274.00 204.84,274.00 C205.30,274.00 208.27,277.60 211.44,282.00 C214.61,286.40 217.56,290.00 218.00,290.00 C218.45,290.00 221.43,286.44 224.63,282.08 C227.83,277.72 230.80,274.37 231.22,274.64 C231.65,274.90 232.00,282.07 232.00,290.56 C232.00,303.62 232.23,306.00 233.50,306.00 C232.24,306.00 232.00,303.89 232.00,293.00 C232.00,281.01 231.86,280.00 230.15,280.00 C229.07,280.00 226.31,282.52 223.58,286.00 C220.99,289.30 218.45,292.00 217.93,292.00 C216.77,292.00 214.71,289.73 210.93,284.25 C205.81,276.85 205.00,278.11 205.00,293.50 C205.00,306.83 204.97,307.00 202.75,307.00 L 200.50 307.00 ZM 304.84 226.27 C306.12,225.98 309.41,223.50 312.15,220.76 C316.85,216.05 317.20,215.88 318.56,217.64 C319.95,219.43 320.08,219.40 322.06,217.00 C323.19,215.62 325.29,213.15 326.73,211.50 C328.72,209.23 329.46,207.12 329.79,202.79 C329.91,201.33 329.96,200.18 329.92,199.19 C331.01,205.58 328.56,212.57 322.43,218.70 C316.53,224.60 311.27,227.36 307.64,226.45 C306.35,226.12 302.45,226.79 298.98,227.93 C292.31,230.12 283.54,230.68 282.50,228.99 C282.15,228.44 282.69,227.70 283.69,227.36 C291.19,224.75 297.13,221.17 300.77,217.25 C298.31,220.33 295.16,223.38 292.89,224.56 C291.30,225.38 290.00,226.46 290.00,226.96 C290.00,228.25 295.93,228.69 299.50,227.67 C301.15,227.20 303.55,226.57 304.84,226.27 ZM 223.85 189.90 C229.70,187.86 227.52,184.77 219.91,184.32 C217.37,184.17 214.27,183.67 213.03,183.21 L 210.78 182.37 L 213.51 180.58 C215.27,179.43 215.97,179.27 215.48,180.15 C214.84,181.27 214.95,181.27 216.10,180.18 C217.29,179.07 217.04,178.53 214.50,176.69 C212.85,175.49 210.31,173.22 208.85,171.65 C207.50,170.18 206.12,167.60 205.09,164.98 C206.40,167.96 208.28,171.05 210.25,173.02 C214.71,177.47 219.79,179.32 227.91,179.43 C231.06,179.47 233.49,179.98 233.72,180.66 C234.40,182.69 228.24,188.61 224.18,189.83 C223.92,189.91 223.65,189.98 223.39,190.05 C223.55,190.00 223.70,189.95 223.85,189.90 ZM 173.15 227.10 C171.01,226.53 168.68,226.29 167.59,226.57 C164.12,227.44 156.73,223.49 151.64,218.04 C147.88,214.03 145.60,209.57 144.81,205.15 C144.89,205.56 144.99,205.96 145.10,206.37 C146.49,211.54 153.81,220.59 155.36,219.04 C156.13,218.27 155.96,217.04 154.76,214.73 C152.93,211.18 152.71,210.07 152.88,205.25 C152.96,203.06 153.50,202.00 154.52,202.00 C155.62,202.00 155.87,202.66 155.44,204.37 C154.36,208.69 156.84,214.66 162.12,220.45 C164.92,223.50 167.94,226.03 168.85,226.06 C169.63,226.08 171.44,226.53 173.15,227.10 ZM 156.76 291.17 C159.64,289.34 156.76,279.00 153.39,279.00 C151.13,279.00 147.93,289.60 149.67,291.33 C150.59,292.25 155.23,292.14 156.76,291.17 ZM 115.08 306.35 C119.61,305.78 126.00,302.61 126.00,300.92 C126.00,299.56 124.85,299.78 120.50,302.00 C112.78,305.93 104.80,304.08 98.69,296.95 C95.30,292.99 95.00,292.14 95.00,286.46 C95.00,286.35 95.00,286.25 95.00,286.15 C95.01,291.03 95.33,291.60 99.25,295.19 C105.60,301.00 113.66,303.77 116.55,301.14 C117.07,300.66 119.03,299.76 120.90,299.14 C124.43,297.96 127.00,298.91 127.00,301.41 C127.00,303.74 121.05,305.82 115.08,306.35 ZM 307.80 305.80 C306.22,307.38 305.36,307.31 304.65,305.52 C305.00,306.38 305.77,306.91 306.37,306.71 C307.12,306.46 307.67,300.81 308.00,289.96 L 308.50 273.59 L 315.08 282.54 C318.70,287.47 323.57,294.42 325.92,298.00 C328.60,302.10 330.50,304.74 331.84,305.62 C332.79,306.23 333.45,305.98 333.92,304.76 C333.45,305.99 332.79,306.24 331.84,305.62 C330.51,304.76 328.64,302.21 326.00,298.25 C323.71,294.81 321.47,292.00 321.02,292.00 C320.56,292.00 318.24,289.37 315.85,286.16 C313.46,282.95 310.94,280.51 310.25,280.74 C309.35,281.05 309.00,284.40 309.00,292.88 C309.00,300.66 308.60,305.00 307.80,305.80 ZM 295.49 82.78 C292.19,78.80 288.59,75.09 287.49,74.53 C287.18,74.37 286.69,74.08 286.07,73.71 C286.36,73.83 286.60,73.91 286.75,73.92 C288.58,74.04 288.34,72.94 286.38,71.20 C289.80,73.80 292.98,76.48 294.60,78.21 C297.08,80.87 299.51,82.80 299.99,82.51 C300.47,82.21 301.22,82.54 301.66,83.23 C302.64,84.79 303.01,90.00 302.13,90.00 C301.78,90.00 298.80,86.75 295.49,82.78 ZM 214.61 222.53 C216.74,220.41 220.36,219.00 223.70,219.00 C226.11,219.00 231.00,215.01 231.00,213.04 C231.00,211.63 227.15,208.71 221.85,205.66 C232.50,211.33 234.63,213.17 233.52,214.97 C232.21,217.09 218.25,223.06 212.33,224.03 C206.82,224.94 201.87,225.15 197.33,224.65 C203.98,225.03 213.06,224.08 214.61,222.53 ZM 262.08 174.70 C261.07,175.51 260.00,176.24 258.88,176.88 C252.67,180.43 253.52,182.27 260.85,181.11 C264.71,180.50 266.98,179.44 269.36,177.14 C269.53,176.97 269.71,176.80 269.88,176.64 C265.46,181.36 260.36,183.26 253.32,182.81 C249.50,182.56 246.38,181.81 245.48,180.91 C244.15,179.58 244.61,179.40 249.52,179.28 C254.06,179.18 258.46,177.44 262.08,174.70 ZM 182.45 157.81 C182.83,163.12 184.25,168.65 186.74,174.27 C188.14,177.44 189.11,180.22 188.89,180.45 C188.66,180.67 186.01,180.00 182.99,178.96 C179.97,177.92 174.72,177.05 171.33,177.03 C170.56,177.03 169.85,177.04 169.20,177.05 C168.02,177.07 167.03,177.08 166.20,177.00 C166.96,177.06 167.86,177.04 168.91,177.02 L 168.91 177.02 C169.50,177.01 170.14,177.00 170.84,177.00 C173.96,177.00 177.86,177.38 179.51,177.85 C181.15,178.31 183.06,178.50 183.75,178.26 C185.42,177.69 185.33,174.54 183.55,171.11 C182.51,169.08 182.22,165.75 182.45,157.81 ZM 281.82 67.91 C270.64,60.78 254.79,55.00 246.07,55.00 C245.04,55.00 244.23,55.05 243.65,55.13 L 244.30 54.95 C249.25,53.53 253.42,53.56 256.75,55.04 C258.54,55.84 260.00,56.82 260.00,57.23 C260.00,58.01 267.11,59.43 268.02,58.84 C268.31,58.65 269.21,59.07 270.02,59.77 C270.84,60.47 275.68,63.82 280.79,67.21 C281.13,67.43 281.47,67.67 281.82,67.91 ZM 184.41 226.91 C184.92,226.45 183.87,225.31 182.01,224.29 C177.02,221.59 171.93,216.93 170.81,214.06 C170.61,213.56 170.44,212.91 170.31,212.19 C171.92,217.51 176.83,221.78 185.20,225.20 C190.19,227.24 192.54,228.67 191.74,229.18 C189.44,230.64 182.92,230.09 175.62,227.86 C178.95,228.59 182.97,228.22 184.41,226.91 ZM 254.88 184.92 C249.34,185.23 249.00,185.51 249.00,187.59 C249.00,188.58 249.33,189.34 250.07,189.89 C246.57,188.79 243.94,186.78 242.49,183.99 C241.64,182.35 241.13,181.00 241.35,181.00 C241.57,181.00 243.89,181.95 246.51,183.11 C249.44,184.40 251.68,184.92 254.88,184.92 ZM 296.89 177.41 C294.72,177.75 292.84,178.30 290.90,179.14 C288.17,180.31 285.71,181.04 285.43,180.76 C285.15,180.48 285.80,178.73 286.88,176.88 C289.90,171.69 291.58,165.03 291.89,158.33 C292.06,164.40 291.71,167.35 290.56,170.82 C289.62,173.64 289.11,176.37 289.43,176.88 C289.69,177.31 292.71,177.50 296.89,177.41 ZM 272.06 55.55 C272.52,56.52 273.74,57.70 275.34,58.37 C281.52,60.95 290.89,68.09 297.56,75.29 C297.69,75.43 297.81,75.56 297.94,75.70 C297.42,75.27 296.97,75.00 296.68,75.00 C295.99,75.00 292.54,72.05 289.02,68.44 C283.69,62.98 282.10,61.91 279.56,62.04 C274.75,62.29 274.03,62.09 274.58,60.66 C274.86,59.92 274.40,58.74 273.55,58.04 C272.72,57.35 272.20,56.37 272.06,55.55 ZM 212.84 56.45 C213.99,53.93 213.97,53.91 210.25,54.58 C208.19,54.94 206.11,55.60 205.64,56.03 C204.18,57.37 205.97,59.00 208.90,59.00 C210.91,59.00 212.00,58.29 212.84,56.45 ZM 163.26 106.22 C164.03,103.99 164.83,102.08 165.48,101.03 C165.98,100.22 166.30,98.33 166.18,96.83 C166.05,95.13 166.78,93.35 168.09,92.13 C169.35,90.96 169.90,89.65 169.45,88.92 C168.99,88.18 169.10,87.95 169.74,88.34 C170.31,88.69 172.17,87.56 173.88,85.81 C174.03,85.66 174.17,85.51 174.31,85.38 C174.12,85.70 174.00,86.02 174.00,86.29 C174.00,86.87 173.38,88.05 172.63,88.92 C171.44,90.29 169.14,94.22 165.20,101.58 C164.73,102.46 164.01,104.21 163.26,106.22 ZM 247.06 203.86 C246.16,204.50 245.27,205.13 244.42,205.73 C248.32,202.86 252.01,199.87 252.63,199.07 C254.00,197.29 253.46,196.70 246.17,192.07 C245.49,191.64 244.79,191.17 244.12,190.68 C246.44,192.23 249.22,193.06 255.29,194.43 C256.83,194.78 257.85,195.43 257.57,195.88 C257.29,196.34 252.56,199.93 247.06,203.86 ZM 211.12 103.59 C211.37,106.60 212.00,109.39 212.98,111.22 L 214.96 114.92 L 212.76 116.46 C211.55,117.31 209.63,118.00 208.51,118.00 C207.95,118.00 206.99,118.29 205.90,118.77 C211.25,115.77 213.24,112.71 211.94,109.50 C211.46,108.30 211.19,106.09 211.12,103.59 ZM 227.92 222.72 C230.87,221.05 233.16,219.51 233.97,218.54 C235.91,216.20 238.88,216.69 242.62,219.97 C244.09,221.26 246.58,222.86 249.41,224.42 C247.26,223.32 245.07,222.15 243.02,220.98 C238.26,218.27 236.02,218.44 227.92,222.72 ZM 229.35 205.23 C226.85,203.24 223.69,200.91 221.37,199.37 C216.60,196.20 216.02,195.51 217.61,194.88 C218.65,194.47 220.65,194.11 222.05,194.07 C223.61,194.03 226.65,192.62 229.54,190.81 C228.11,191.78 226.65,192.65 225.50,193.21 C223.07,194.39 220.86,195.94 220.59,196.64 C220.32,197.34 221.99,199.37 224.30,201.16 C225.72,202.25 227.62,203.79 229.35,205.23 ZM 282.10 137.88 C280.99,136.98 280.40,135.90 280.79,135.46 C281.18,135.03 280.91,135.02 280.20,135.43 C279.14,136.04 279.19,136.65 280.45,138.56 C281.30,139.86 282.03,141.73 282.06,142.71 C282.11,144.01 282.40,143.81 283.12,142.01 C283.93,139.97 283.75,139.21 282.10,137.88 ZM 264.78 117.70 C262.57,117.08 260.70,116.32 260.44,115.91 C260.15,115.44 260.68,113.59 261.61,111.80 C262.30,110.45 262.79,108.81 263.09,107.01 C263.01,107.94 262.89,108.90 262.76,109.88 C262.21,113.79 263.04,116.78 264.78,117.70 ZM 151.00 126.00 C151.00,124.90 150.55,124.00 150.00,124.00 C149.45,124.00 149.00,124.90 149.00,126.00 C149.00,127.10 149.45,128.00 150.00,128.00 C150.55,128.00 151.00,127.10 151.00,126.00 ZM 201.15 60.75 C200.01,59.61 197.71,60.72 198.52,62.03 C198.82,62.51 199.75,62.65 200.60,62.32 C201.60,61.94 201.79,61.39 201.15,60.75 ZM 317.62 111.21 L 319.40 116.50 L 319.95 147.35 C320.23,163.26 320.20,176.88 319.89,179.02 C320.20,176.88 320.23,163.26 319.94,147.35 C319.47,121.35 319.36,117.15 317.62,111.21 ZM 301.41 79.74 C303.54,82.39 305.51,85.15 307.31,88.04 C306.31,86.55 305.39,85.42 304.62,84.81 C303.45,83.88 302.50,82.68 302.50,82.14 C302.50,81.62 302.06,80.73 301.41,79.74 ZM 154.15 100.06 C154.22,99.90 154.30,99.73 154.37,99.57 C159.59,88.29 166.60,78.73 175.52,70.77 C166.56,79.00 159.27,89.06 154.15,100.06 ZM 290.50 73.00 C290.16,72.45 290.33,72.00 290.88,72.00 C291.43,72.00 292.16,72.45 292.50,73.00 C292.84,73.55 292.67,74.00 292.12,74.00 C291.57,74.00 290.84,73.55 290.50,73.00 ZM 245.76 122.30 C245.47,122.43 245.18,122.56 244.89,122.68 C246.84,121.74 248.68,120.37 250.53,118.53 C251.77,117.28 252.77,116.18 253.52,115.19 C251.71,118.23 249.02,120.76 245.76,122.30 ZM 241.35 75.24 C234.67,74.41 227.56,76.38 221.88,80.26 C223.77,78.87 225.74,77.75 227.63,77.04 C232.63,75.17 237.09,74.55 241.35,75.24 ZM 185.76 138.89 C186.75,136.71 188.26,134.35 190.09,132.03 C186.54,136.73 184.19,141.91 183.08,147.42 C183.52,144.25 184.27,142.16 185.76,138.89 ZM 312.32 173.23 C312.21,174.20 312.09,174.82 311.96,175.07 C311.15,176.58 310.02,176.95 304.85,176.99 C309.16,176.63 311.03,176.10 311.75,175.20 C311.98,174.91 312.16,174.29 312.32,173.23 ZM 190.87 59.72 C192.69,58.66 194.57,57.65 196.50,56.68 C199.98,54.94 204.16,53.28 208.31,51.90 C202.47,53.98 196.30,56.73 190.87,59.72 ZM 307.60 79.98 C304.35,76.30 299.89,71.86 296.37,68.95 C300.59,72.26 304.50,76.11 307.60,79.98 ZM 188.65 169.91 C188.60,169.78 188.55,169.65 188.49,169.52 C186.64,164.79 186.05,162.68 186.06,158.60 C186.37,162.31 187.24,166.32 188.62,169.83 C188.63,169.86 188.64,169.88 188.65,169.91 ZM 291.35 148.61 C290.73,144.80 289.62,141.22 288.00,138.16 C290.13,142.15 290.91,144.12 291.35,148.61 ZM 175.60 201.16 C177.43,198.34 180.83,196.62 185.87,195.96 C181.25,196.74 177.49,198.51 175.60,201.16 ZM 263.56 61.48 C269.34,63.53 274.79,66.27 279.67,69.60 C274.98,66.50 269.11,63.60 263.56,61.48 ZM 242.62 55.43 C241.68,56.03 244.38,57.14 249.72,58.01 C249.60,58.00 249.48,58.00 249.35,58.00 C248.13,58.00 245.86,57.49 244.32,56.87 L 241.50 55.75 ZM 262.24 93.87 C261.84,92.47 261.34,91.14 260.75,89.92 C259.17,86.69 256.32,83.34 253.13,80.69 C257.77,84.24 260.77,88.52 262.24,93.87 ZM 146.02 194.31 C147.05,191.97 148.59,189.79 150.66,187.86 C154.61,184.20 157.31,182.58 162.37,181.92 C160.12,182.30 158.21,182.82 157.00,183.44 C151.74,186.13 147.98,189.94 146.02,194.31 ZM 329.06 185.87 C329.72,188.09 330.59,190.36 331.60,192.45 C333.02,195.36 333.77,198.29 333.86,201.22 C333.95,204.03 333.42,206.85 332.27,209.68 C330.93,212.99 328.76,216.29 325.74,219.60 C328.75,216.30 330.93,212.98 332.27,209.68 C333.41,206.86 333.94,204.04 333.86,201.22 C333.76,198.26 332.98,195.32 331.50,192.42 C330.31,190.06 329.30,187.33 329.06,185.87 ZM 194.70 233.53 C201.15,232.90 207.57,231.54 213.37,229.48 C214.28,229.16 215.23,228.79 216.21,228.39 C214.78,229.00 213.50,229.50 212.50,229.85 C207.08,231.71 200.93,232.95 194.70,233.53 ZM 199.81 185.01 C195.74,181.87 192.25,177.57 189.71,172.31 C192.12,177.23 195.76,181.73 199.81,185.01 ZM 146.00 184.81 C146.00,184.85 146.00,184.89 146.00,184.93 C146.00,186.13 144.88,188.76 143.50,190.79 C142.52,192.23 141.90,193.41 141.53,194.85 C141.90,193.42 142.50,192.26 143.45,190.86 C144.43,189.42 145.38,187.12 146.00,184.81 ZM 182.43 219.80 C179.22,218.01 177.10,216.29 175.79,214.28 C177.15,216.13 179.56,218.09 182.43,219.80 ZM 266.01 118.00 C267.14,118.00 268.60,118.54 270.25,119.47 C268.96,118.93 267.37,118.38 265.90,118.00 C265.94,118.00 265.97,118.00 266.01,118.00 ZM 221.26 190.53 C218.19,191.08 215.14,191.08 212.17,190.56 C215.26,190.97 218.58,190.96 221.26,190.53 ZM 202.94 65.21 C210.24,61.63 218.85,58.64 223.53,58.06 C218.99,58.63 210.77,61.49 202.94,65.21 ZM 242.81 189.69 C241.17,188.40 239.82,187.13 239.30,186.34 L 239.23 186.23 L 241.03 188.03 C241.66,188.66 242.24,189.21 242.81,189.69 ZM 325.57 190.16 C322.59,186.76 318.36,184.06 313.86,182.41 C315.78,183.09 317.64,183.96 319.40,185.03 C321.88,186.53 323.94,188.27 325.57,190.16 ZM 266.73 189.26 C271.14,187.62 275.14,184.64 279.33,179.98 C275.03,184.77 271.18,187.67 266.73,189.26 ZM 252.94 123.00 C251.60,123.58 249.99,124.32 248.50,125.05 C245.66,126.44 242.56,127.26 239.39,127.52 C242.68,127.22 245.95,126.30 249.10,124.75 C250.45,124.08 251.80,123.47 252.94,123.00 ZM 174.19 209.99 C174.06,209.15 174.00,208.25 174.00,207.29 C174.00,205.41 174.32,203.76 174.96,202.34 C174.11,204.37 173.84,207.40 174.19,209.99 ZM 235.57 185.96 L 237.16 184.16 L 237.35 184.35 ZM 269.25 180.19 C272.13,178.06 274.54,175.92 274.94,175.15 C274.54,175.92 272.13,178.06 269.25,180.20 C265.67,182.86 264.06,183.88 261.34,184.37 C263.94,183.85 265.74,182.78 269.25,180.19 ZM 287.51 137.27 C285.88,134.45 283.22,131.01 280.36,127.88 C283.15,130.84 285.71,134.14 287.51,137.27 ZM 250.91 96.83 C250.48,94.82 249.54,93.67 247.26,91.55 C247.03,91.34 246.81,91.13 246.60,90.94 C249.49,93.40 250.71,95.06 250.91,96.83 ZM 314.61 91.04 C313.62,89.45 312.78,87.97 312.34,87.05 C313.20,88.56 313.95,89.88 314.61,91.04 ZM 285.20 61.12 C279.20,57.20 273.79,54.00 272.94,54.00 C273.82,54.00 279.25,57.22 285.20,61.12 ZM 279.33 179.98 C283.32,175.54 285.86,171.13 287.17,166.11 C285.87,171.14 283.34,175.51 279.33,179.98 ZM 228.33 122.35 C229.20,122.76 230.11,123.11 231.08,123.42 C231.46,123.54 231.82,123.65 232.16,123.75 C230.83,123.42 229.54,122.95 228.33,122.35 ZM 304.77 209.09 C304.74,209.69 304.66,210.27 304.54,210.83 C304.45,211.21 304.31,211.63 304.11,212.08 C304.32,211.50 304.49,210.92 304.60,210.34 C304.67,209.92 304.73,209.50 304.77,209.09 ZM 304.61 305.42 C304.27,304.55 304.00,295.55 304.00,285.42 C304.00,295.52 304.28,304.51 304.62,305.45 ZM 162.29 171.28 C161.97,168.03 161.99,162.97 162.02,155.10 C162.02,153.17 162.03,151.07 162.03,148.78 C162.03,150.95 162.03,152.96 162.02,154.82 L 162.02 154.82 C161.99,162.85 161.98,167.99 162.29,171.28 ZM 312.96 148.06 C312.92,127.20 312.60,120.41 311.05,114.34 C312.60,120.40 312.92,127.15 312.96,147.82 C312.96,148.18 312.96,148.54 312.96,148.90 C312.96,148.62 312.96,148.34 312.96,148.06 ZM 201.54 121.27 C200.41,122.05 199.32,122.86 198.28,123.69 C199.36,122.80 200.46,121.99 201.54,121.27 ZM 95.40 281.14 C95.83,279.44 96.69,278.14 98.39,276.00 C96.71,278.12 95.84,279.47 95.40,281.14 ZM 288.18 153.42 C288.08,151.75 287.93,150.15 287.73,148.69 C287.94,150.18 288.09,151.75 288.18,153.42 ZM 207.22 198.67 C208.45,199.13 209.71,199.65 211.02,200.23 C209.75,199.67 208.47,199.15 207.22,198.67 ZM 201.40 267.16 C201.40,267.16 201.41,267.15 201.41,267.15 C202.03,266.14 202.68,265.83 203.51,266.29 C202.69,265.84 202.04,266.16 201.40,267.16 ZM 274.27 174.01 C274.74,174.04 275.00,174.35 275.00,174.97 C275.00,174.38 274.73,174.07 274.27,174.01 ZM 108.77 306.23 C109.52,306.34 110.35,306.42 111.18,306.46 C110.35,306.42 109.54,306.35 108.77,306.23 ZM 176.07 86.80 C175.58,87.63 174.98,88.59 174.24,89.67 C174.93,88.66 175.55,87.68 176.07,86.80 ZM 146.65 125.04 C146.58,125.53 146.52,126.01 146.46,126.50 C146.47,126.43 146.47,126.36 146.48,126.29 C146.53,125.88 146.59,125.46 146.65,125.04 ZM 236.61 211.00 C236.60,211.00 236.60,211.00 236.60,211.00 C236.57,211.00 236.52,210.98 236.44,210.94 C236.51,210.97 236.57,210.99 236.61,211.00 Z" fill="rgb(43,53,47)"/>
<path d="M 314.61 91.04 C315.81,93.14 316.73,94.72 317.50,96.03 C318.27,97.75 317.91,98.18 316.50,97.64 C314.75,96.97 314.64,97.45 315.95,99.91 C316.37,100.69 317.35,103.47 318.34,106.63 C317.26,103.44 315.80,100.25 313.83,96.11 C310.82,89.77 310.15,87.52 311.11,86.93 C311.44,86.73 311.70,86.58 311.81,86.36 C311.83,86.31 311.85,86.26 311.86,86.20 C312.02,86.49 312.18,86.77 312.34,87.05 C312.78,87.97 313.62,89.45 314.61,91.04 ZM 250.91 96.83 C250.76,95.49 250.02,94.21 248.42,92.61 C249.55,93.45 250.45,94.00 250.78,94.00 C251.67,94.00 251.76,93.23 251.35,92.25 C251.78,92.99 252.59,93.98 253.52,94.85 C256.28,97.47 256.81,99.53 254.50,98.64 C253.68,98.32 253.00,98.50 253.00,99.03 C253.00,100.98 251.68,100.20 251.15,98.53 C251.09,97.89 251.02,97.34 250.91,96.83 ZM 224.90 124.75 C221.93,123.29 219.71,122.45 217.69,122.24 C216.28,121.96 214.85,121.79 213.36,121.74 C210.54,121.63 208.85,121.70 207.23,122.24 C208.04,121.87 208.79,121.59 209.43,121.43 C210.85,121.07 212.27,120.38 212.57,119.89 C212.87,119.40 214.26,119.00 215.67,119.00 C217.52,119.00 218.06,119.41 217.64,120.50 C217.32,121.32 217.57,122.00 218.18,122.00 C218.80,122.00 221.82,123.24 224.90,124.75 ZM 223.18 92.28 C223.09,92.77 223.06,93.14 223.11,93.41 C222.92,93.09 222.99,92.47 223.35,91.53 C223.68,90.68 225.19,89.43 226.72,88.76 C227.62,88.37 228.52,87.86 229.20,87.40 C228.48,87.92 227.49,88.53 226.51,89.03 C224.86,89.88 223.37,91.34 223.18,92.28 ZM 319.24 109.61 C320.40,113.63 320.92,116.70 321.25,125.51 C320.91,118.42 320.34,113.77 319.24,109.61 ZM 241.27 127.28 C240.64,127.38 240.02,127.46 239.39,127.52 C237.44,127.68 235.46,127.63 233.49,127.36 C234.55,127.46 235.69,127.50 237.00,127.50 C238.62,127.50 240.00,127.44 241.27,127.28 ZM 251.09 91.74 C250.51,90.72 249.48,89.59 248.28,88.94 C249.78,89.72 251.01,90.83 251.02,91.42 C251.02,91.51 251.04,91.61 251.09,91.74 ZM 186.69 149.51 L 186.68 149.52 C187.79,141.99 190.58,136.01 195.30,131.00 C195.44,130.86 195.58,130.71 195.72,130.57 C190.70,135.78 187.81,141.89 186.69,149.51 ZM 297.99 70.34 C296.17,68.85 294.14,67.29 291.93,65.69 C292.82,66.32 293.69,66.94 294.52,67.55 C295.14,68.00 295.76,68.47 296.37,68.95 C296.90,69.38 297.44,69.85 297.99,70.34 ZM 275.12 54.95 C272.83,53.79 272.14,53.94 272.02,55.06 C272.04,54.44 272.33,54.00 272.94,54.00 C273.22,54.00 273.99,54.35 275.12,54.95 ZM 307.60 79.98 C308.20,80.73 308.77,81.48 309.31,82.22 C308.57,81.30 307.64,80.16 306.49,78.75 C306.88,79.17 307.25,79.58 307.60,79.98 ZM 146.15 130.51 C146.22,131.16 146.45,131.44 146.90,131.54 C146.87,131.57 146.84,131.60 146.81,131.62 C146.40,131.87 146.18,131.53 146.15,130.51 ZM 243.63 88.56 C241.33,86.91 240.13,86.91 236.22,87.32 C240.34,86.89 241.48,86.88 243.63,88.56 ZM 322.10 170.86 C322.40,181.05 322.86,182.46 324.05,183.55 C322.84,182.45 322.38,181.09 322.10,170.86 ZM 146.41 126.85 C146.21,128.50 146.12,129.71 146.15,130.51 C146.07,129.81 146.19,128.67 146.41,126.85 ZM 226.94 91.54 C227.14,91.35 227.34,91.15 227.56,90.94 C228.83,89.71 229.94,88.90 231.29,88.35 C229.90,88.92 228.76,89.78 227.37,91.12 C227.22,91.27 227.08,91.40 226.94,91.54 ZM 247.97 88.77 C246.57,88.03 245.16,87.03 244.79,86.50 C245.15,87.02 246.55,88.01 247.97,88.77 Z" fill="rgb(86,88,64)"/>
<path d="M 263.56 61.48 C258.21,59.43 253.15,58.10 249.72,58.01 C244.38,57.14 241.68,56.03 242.62,55.43 L 243.65 55.13 C244.23,55.05 245.04,55.00 246.07,55.00 C254.79,55.00 270.64,60.78 281.82,67.91 C283.31,68.93 284.87,70.05 286.38,71.20 C288.34,72.94 288.58,74.04 286.75,73.92 C286.60,73.91 286.36,73.83 286.07,73.71 C284.50,72.76 282.14,71.25 279.95,69.79 C279.86,69.73 279.77,69.66 279.67,69.60 C274.79,66.27 269.34,63.53 263.56,61.48 ZM 191.91 69.17 C194.27,64.77 214.46,56.59 225.52,55.56 C232.04,54.95 232.33,55.01 230.00,56.42 C228.62,57.25 226.31,57.95 224.86,57.96 C224.46,57.97 224.01,58.00 223.53,58.06 L 223.52 58.06 C218.85,58.64 210.24,61.64 202.94,65.21 C201.62,65.84 200.32,66.49 199.04,67.16 C197.31,68.06 195.63,68.96 194.12,69.78 C192.62,70.54 191.62,71.00 191.47,71.00 C191.17,71.00 191.37,70.18 191.91,69.17 ZM 159.49 157.99 C161.28,160.88 162.00,158.01 162.00,148.00 C162.00,141.95 161.60,137.00 161.11,137.00 C160.62,137.00 160.02,137.56 159.78,138.25 C159.65,138.62 159.53,139.46 159.44,140.60 C159.49,137.65 159.56,134.82 159.63,132.19 C161.07,134.31 162.00,132.42 162.04,127.25 C162.05,124.23 162.40,120.96 163.03,117.59 C162.37,122.69 162.06,132.70 162.04,148.64 L 162.03 148.78 C162.03,151.07 162.02,153.17 162.02,155.10 L 162.02 155.10 C161.99,162.97 161.97,168.03 162.29,171.28 C162.55,173.99 163.03,175.44 163.92,176.21 C161.57,175.81 160.21,175.36 159.88,174.85 C159.29,173.91 159.03,174.33 159.02,176.21 C159.01,177.04 158.72,177.86 158.29,178.57 C158.58,176.17 158.93,166.95 159.17,155.33 C159.24,156.75 159.34,157.74 159.49,157.99 ZM 153.58 119.87 C152.27,116.82 158.03,98.28 159.93,99.46 C160.25,99.66 160.23,100.69 159.90,102.30 C159.44,104.11 158.78,106.32 158.11,108.17 C157.26,110.53 156.62,112.49 156.15,114.73 C155.73,116.11 155.40,117.26 155.20,118.00 C154.52,120.60 154.10,121.08 153.58,119.87 ZM 243.63 88.56 C241.48,86.88 240.34,86.89 236.22,87.32 L 236.15 87.32 C234.06,87.54 232.57,87.83 231.29,88.35 L 231.29 88.35 C229.94,88.90 228.83,89.71 227.56,90.94 L 227.50 91.00 C229.41,89.01 229.88,88.00 228.91,88.00 C228.67,88.00 228.42,88.03 228.16,88.10 C228.54,87.86 228.89,87.62 229.20,87.40 C229.68,87.06 230.05,86.75 230.21,86.52 C231.14,85.20 243.85,85.19 244.79,86.50 C245.09,86.93 246.06,87.66 247.17,88.32 C246.64,88.14 246.10,88.04 245.56,88.03 C244.07,88.01 243.97,88.28 245.70,90.15 C245.32,89.83 244.97,89.56 244.63,89.32 C244.27,89.04 243.94,88.79 243.63,88.56 ZM 232.75 49.31 C228.80,48.28 231.42,47.00 237.50,47.00 C243.67,47.00 245.87,48.07 242.42,49.39 C240.67,50.06 235.47,50.02 232.75,49.31 ZM 255.19 112.02 C255.26,111.72 255.30,111.43 255.31,111.14 C255.89,109.25 256.15,107.25 256.06,105.25 C255.93,102.76 256.29,101.00 256.92,101.00 C257.52,101.00 258.00,101.90 258.00,103.00 C258.00,104.10 258.45,105.00 259.00,105.00 C259.27,105.00 259.48,104.69 259.64,104.17 C259.56,104.88 259.46,105.63 259.36,106.41 C258.89,109.85 258.34,110.96 257.32,110.57 C256.56,110.28 255.73,110.85 255.19,112.02 ZM 215.10 95.95 C215.59,93.66 216.75,91.25 218.31,89.00 C216.74,91.30 215.58,93.78 215.09,96.15 C214.40,99.56 214.33,102.59 214.91,104.50 L 215.83 107.50 L 215.91 104.81 C216.07,99.98 218.00,100.60 218.00,105.48 C218.00,108.24 218.54,110.79 219.52,113.07 C218.53,111.34 217.45,110.22 216.99,110.51 C216.48,110.82 215.82,109.94 215.53,108.54 C215.24,107.14 214.77,104.90 214.50,103.56 C214.22,102.22 214.49,98.80 215.10,95.95 ZM 307.52 103.71 C305.81,99.62 305.61,98.00 306.81,98.00 C308.35,98.00 311.18,105.22 310.08,106.32 C309.37,107.03 308.57,106.21 307.52,103.71 ZM 327.83 136.25 C327.25,136.94 326.81,136.68 326.30,135.21 C325.73,132.82 326.37,128.97 327.50,128.72 C328.88,128.42 329.35,133.56 328.13,135.72 C328.02,135.93 327.92,136.10 327.83,136.25 ZM 216.28 49.56 C220.32,48.55 223.80,47.96 225.90,48.02 C228.61,48.20 228.68,49.83 225.75,50.39 C215.79,52.28 207.91,54.49 201.11,57.56 C206.51,54.98 212.23,53.06 218.31,51.78 C224.39,50.51 225.89,49.00 221.08,49.00 C219.71,49.00 218.09,49.20 216.28,49.56 ZM 247.70 50.36 C246.17,48.84 247.17,48.00 250.50,48.00 C252.43,48.00 254.00,48.45 254.00,49.00 C254.00,49.55 253.36,50.00 252.58,50.00 C251.80,50.00 250.54,50.24 249.78,50.53 C249.02,50.82 248.08,50.75 247.70,50.36 ZM 320.09 105.17 C318.74,102.65 318.69,101.00 319.96,101.00 C320.27,101.00 320.58,101.15 320.87,101.39 C321.65,102.59 322.24,103.79 322.52,104.65 C322.60,105.31 322.51,105.89 322.19,106.21 ZM 153.61 143.00 C152.96,143.00 152.57,143.48 152.33,145.68 C152.38,142.60 152.43,139.82 152.50,137.36 C152.73,137.54 153.06,137.53 153.50,137.36 C153.83,137.24 154.13,136.99 154.38,136.68 C154.42,138.74 154.45,141.05 154.47,143.58 C154.26,143.12 153.98,143.00 153.61,143.00 ZM 154.30 133.22 C154.07,132.96 153.79,132.75 153.50,132.64 C153.15,132.50 152.87,132.47 152.66,132.55 C152.87,126.98 153.16,124.00 153.50,124.00 C153.86,124.01 154.13,127.20 154.30,133.22 ZM 159.67 167.33 C160.93,168.60 162.00,167.99 162.00,166.00 C162.00,164.89 161.33,164.00 160.50,164.00 C158.98,164.00 158.45,166.12 159.67,167.33 ZM 157.42 179.67 C156.39,180.67 155.14,181.04 154.53,180.05 C154.23,179.56 154.23,171.99 154.52,162.86 C154.60,177.93 154.91,180.41 156.00,180.18 C156.47,180.08 156.99,179.89 157.42,179.67 ZM 171.32 177.03 L 171.33 177.03 C174.50,177.05 179.30,177.81 182.38,178.76 C179.64,178.07 175.33,177.39 171.32,177.03 ZM 150.15 183.92 C150.01,183.99 149.87,184.06 149.74,184.12 C149.92,184.02 150.12,183.89 150.33,183.73 C151.30,183.01 151.72,181.24 151.97,172.64 C151.87,182.03 151.49,183.20 150.15,183.92 ZM 229.50 80.11 C233.89,78.90 237.77,78.63 241.38,79.33 C237.74,78.79 233.39,79.04 229.50,80.11 ZM 174.24 89.67 C171.13,94.28 168.09,100.61 165.88,106.88 C168.00,100.68 170.88,94.65 174.24,89.67 ZM 259.10 93.52 C259.74,95.30 260.00,97.27 259.96,99.71 C259.89,97.58 259.59,95.22 259.10,93.52 ZM 184.82 179.56 C186.87,180.20 188.48,180.57 188.83,180.48 C188.82,180.50 188.81,180.52 188.80,180.53 C188.55,180.79 186.80,180.35 184.82,179.56 ZM 233.23 124.09 C231.08,123.68 229.03,122.89 227.15,121.74 C227.53,121.96 227.93,122.16 228.33,122.35 L 228.33 122.35 C229.54,122.95 230.83,123.42 232.16,123.75 C232.55,123.88 232.90,123.99 233.23,124.09 ZM 257.35 90.27 C256.64,89.33 255.74,88.32 254.73,87.32 C254.63,87.19 254.52,87.06 254.39,86.92 C255.59,88.09 256.57,89.18 257.35,90.27 ZM 251.09 91.74 C251.15,91.89 251.23,92.06 251.35,92.25 C251.76,93.23 251.67,94.00 250.78,94.00 C250.70,94.00 250.60,93.97 250.47,93.92 C251.40,94.17 251.80,93.65 251.28,92.25 C251.16,91.94 251.02,91.64 250.85,91.35 C250.94,91.48 251.02,91.61 251.09,91.74 ZM 147.00 183.60 C147.10,183.67 147.21,183.76 147.33,183.86 C147.58,184.07 147.82,184.22 148.05,184.32 C147.73,184.22 147.43,184.03 147.15,183.75 C147.10,183.70 147.05,183.65 147.00,183.60 ZM 244.87 122.69 L 244.89 122.68 C245.18,122.56 245.47,122.44 245.75,122.30 C245.46,122.44 245.17,122.57 244.87,122.69 ZM 253.48 115.26 C253.49,115.23 253.50,115.21 253.52,115.19 C253.54,115.16 253.56,115.13 253.58,115.11 C253.54,115.16 253.51,115.21 253.48,115.26 Z" fill="rgb(112,109,79)"/>
<path d="M 317.62 111.21 C317.33,110.22 316.99,109.19 316.60,108.00 C314.21,100.68 310.38,92.63 307.31,88.04 C305.51,85.15 303.54,82.39 301.41,79.74 C300.44,78.27 299.03,76.61 297.94,75.70 C297.81,75.56 297.69,75.43 297.56,75.29 C293.63,71.04 288.75,66.82 284.15,63.53 C284.92,64.06 285.78,64.64 286.76,65.28 C290.46,67.74 294.36,70.70 295.40,71.87 C297.19,73.87 299.00,74.67 299.00,73.46 C299.00,72.04 295.51,68.57 291.49,65.38 C291.64,65.49 291.79,65.59 291.93,65.69 C294.14,67.29 296.17,68.85 297.99,70.34 C300.78,72.80 303.90,75.91 306.49,78.75 C307.64,80.16 308.57,81.30 309.31,82.22 C310.22,83.50 311.04,84.76 311.74,86.00 L 311.86 86.20 C311.85,86.26 311.83,86.31 311.81,86.36 C311.70,86.58 311.44,86.73 311.11,86.93 C310.15,87.52 310.82,89.77 313.83,96.11 C315.80,100.25 317.26,103.44 318.34,106.63 C318.59,107.43 318.84,108.27 319.09,109.10 C319.14,109.27 319.19,109.44 319.24,109.61 L 319.24 109.61 C320.34,113.77 320.91,118.42 321.25,125.51 C321.44,130.82 321.57,138.22 321.72,149.17 C321.85,159.05 321.96,165.96 322.10,170.86 C322.37,180.45 322.78,182.24 323.83,183.34 C323.14,182.91 322.27,182.31 321.18,181.53 C318.50,179.61 316.02,178.31 315.68,178.66 C315.33,179.00 314.35,178.70 313.49,178.00 C312.72,177.35 310.80,176.99 308.34,176.86 C310.63,176.65 311.38,176.16 311.96,175.07 C312.09,174.82 312.21,174.20 312.32,173.23 C312.80,170.00 312.97,162.74 312.96,148.90 L 312.96 148.90 C312.96,148.54 312.96,148.18 312.96,147.82 C312.92,127.18 312.60,120.42 311.06,114.37 L 311.05 114.34 C310.86,113.60 310.65,112.86 310.43,112.12 C309.87,110.31 310.04,109.85 311.09,110.20 C313.95,111.15 315.12,121.13 315.70,149.74 C316.16,172.59 316.55,178.21 317.71,179.18 C318.73,180.02 319.35,180.05 319.83,179.29 C319.85,179.25 319.87,179.16 319.89,179.02 C319.90,178.99 319.90,178.97 319.90,178.94 C320.20,176.58 320.23,163.08 319.95,147.35 L 319.40 116.50 ZM 154.15 100.06 C159.27,89.06 166.56,79.00 175.52,70.77 C178.08,68.49 180.79,66.34 183.66,64.33 C178.72,68.02 175.00,71.86 175.00,73.67 C175.00,75.02 175.60,74.80 177.94,72.56 C179.55,71.01 181.72,69.24 182.76,68.62 C183.75,68.04 187.46,65.62 191.18,63.13 C186.62,66.26 182.38,70.04 178.00,74.70 C175.44,77.43 173.21,79.82 171.30,81.90 C168.61,84.69 166.61,86.90 165.11,88.82 C162.98,91.31 162.00,92.68 162.00,93.12 C162.00,93.61 161.39,94.00 160.64,94.00 C157.72,94.00 150.24,113.93 148.54,126.23 C148.20,128.69 147.48,131.00 146.90,131.54 C146.89,131.54 146.87,131.53 146.85,131.53 C146.43,131.41 146.21,131.13 146.15,130.51 C146.12,129.71 146.21,128.51 146.41,126.86 L 146.41 126.85 C146.43,126.74 146.44,126.62 146.46,126.50 L 146.46 126.50 C146.52,126.01 146.58,125.53 146.65,125.04 C147.77,117.46 150.71,107.64 154.15,100.06 ZM 163.26 106.22 L 163.26 106.22 C164.01,104.21 164.73,102.46 165.20,101.58 C169.14,94.22 171.44,90.29 172.63,88.92 C173.38,88.05 174.00,86.87 174.00,86.29 C174.00,86.02 174.12,85.70 174.31,85.38 C177.80,81.92 178.42,82.76 176.07,86.80 C175.55,87.68 174.93,88.66 174.24,89.67 C170.88,94.65 168.00,100.68 165.88,106.88 L 165.88 106.88 C164.84,109.83 163.98,112.77 163.38,115.50 C163.26,116.07 163.14,116.77 163.03,117.59 C162.40,120.96 162.05,124.23 162.04,127.25 C162.00,132.42 161.07,134.31 159.63,132.19 C159.75,127.36 159.88,123.20 160.01,120.19 C160.06,119.81 160.10,119.41 160.12,119.00 C160.31,116.16 161.75,110.57 163.26,106.22 ZM 153.61 143.00 C153.98,143.00 154.26,143.12 154.47,143.58 C154.49,146.22 154.50,149.12 154.50,152.26 C154.50,156.34 154.51,159.85 154.52,162.86 C154.23,171.99 154.23,179.56 154.53,180.05 C154.75,180.40 155.05,180.58 155.39,180.62 C154.80,180.86 154.34,181.00 154.10,181.00 C153.53,181.00 152.25,181.81 151.16,182.85 C151.70,181.63 151.90,179.04 151.97,172.64 C152.09,168.23 152.17,162.03 152.24,153.25 C152.27,150.56 152.30,148.03 152.33,145.68 C152.57,143.48 152.96,143.00 153.61,143.00 ZM 254.88 184.92 C251.68,184.92 249.44,184.40 246.51,183.11 C243.89,181.95 241.57,181.00 241.35,181.00 C241.15,181.00 241.56,182.12 242.28,183.57 C240.65,181.13 239.91,178.69 240.96,177.64 C241.79,176.81 242.32,176.89 242.98,177.97 C243.49,178.80 244.96,179.26 246.87,179.38 C244.49,179.54 244.45,179.88 245.48,180.91 C246.38,181.81 249.50,182.56 253.32,182.81 C260.36,183.26 265.46,181.36 269.88,176.64 C271.80,174.88 273.40,173.95 274.27,174.01 C274.73,174.07 275.00,174.38 275.00,174.97 C275.00,174.99 275.00,175.00 274.99,175.02 C274.98,175.06 274.97,175.10 274.94,175.15 C274.92,175.19 274.89,175.24 274.85,175.29 C274.26,176.16 271.97,178.18 269.25,180.19 C265.74,182.78 263.94,183.85 261.34,184.37 C260.02,184.61 258.44,184.73 256.25,184.84 C255.76,184.87 255.31,184.89 254.88,184.92 ZM 216.28 49.56 C218.09,49.20 219.71,49.00 221.08,49.00 C225.89,49.00 224.39,50.51 218.31,51.78 C212.23,53.06 206.51,54.98 201.11,57.56 C200.94,57.64 200.76,57.72 200.59,57.80 C201.21,57.33 201.09,56.18 200.13,55.58 C199.93,55.46 199.19,55.66 198.08,56.09 C201.47,54.52 204.95,53.10 208.31,51.90 C211.05,50.98 213.77,50.19 216.28,49.56 ZM 159.49 157.99 C159.34,157.74 159.24,156.75 159.17,155.33 C159.22,152.97 159.27,150.52 159.31,148.00 C159.34,145.48 159.39,143.00 159.44,140.60 C159.53,139.46 159.65,138.62 159.78,138.25 C160.02,137.56 160.62,137.00 161.11,137.00 C161.60,137.00 162.00,141.95 162.00,148.00 C162.00,158.01 161.28,160.88 159.49,157.99 ZM 282.84 62.63 C280.12,60.77 277.53,59.28 275.34,58.37 C273.74,57.70 272.52,56.52 272.06,55.55 C272.03,55.38 272.02,55.22 272.02,55.06 C272.14,53.94 272.83,53.79 275.12,54.95 C277.08,56.01 280.11,57.85 283.47,60.00 C282.24,59.37 281.21,59.00 280.54,59.00 C278.54,59.00 278.99,59.88 282.84,62.63 ZM 157.42 179.67 C157.74,179.51 158.01,179.34 158.17,179.18 C158.21,179.14 158.25,178.93 158.29,178.57 C158.72,177.86 159.01,177.04 159.02,176.21 C159.03,174.33 159.29,173.91 159.88,174.85 C160.21,175.36 161.57,175.81 163.92,176.21 C164.00,176.28 164.09,176.35 164.18,176.41 C164.29,176.49 164.42,176.56 164.54,176.62 C163.15,176.61 162.21,176.71 162.00,176.94 C161.46,177.54 159.30,178.79 157.34,179.75 C157.37,179.72 157.39,179.70 157.42,179.67 ZM 159.67 167.33 C158.45,166.12 158.98,164.00 160.50,164.00 C161.33,164.00 162.00,164.89 162.00,166.00 C162.00,167.99 160.93,168.60 159.67,167.33 ZM 330.93 304.76 C334.09,307.44 334.50,305.45 334.77,286.09 C334.89,277.78 334.93,273.04 334.78,270.38 C334.97,273.02 335.00,277.70 335.00,285.87 C335.00,297.61 334.79,303.76 333.56,305.45 C333.13,306.05 332.57,306.09 331.84,305.62 L 331.84 305.62 C330.92,305.02 329.73,303.57 328.20,301.39 C329.41,303.06 330.44,304.36 330.93,304.76 ZM 154.30 133.22 C154.33,134.29 154.36,135.44 154.38,136.68 C154.13,136.99 153.83,137.24 153.50,137.36 C153.06,137.53 152.73,137.54 152.50,137.36 C152.55,135.59 152.60,133.98 152.66,132.55 C152.87,132.47 153.15,132.50 153.50,132.64 C153.79,132.75 154.07,132.96 154.30,133.22 ZM 307.47 300.90 C307.17,304.62 306.80,306.57 306.37,306.71 C305.77,306.91 305.00,306.38 304.65,305.52 L 304.65 305.52 C304.64,305.50 304.63,305.47 304.62,305.45 C304.29,304.54 304.02,296.08 304.00,286.38 C304.02,296.15 304.35,303.99 304.75,303.98 C306.17,303.96 306.98,303.37 307.47,300.90 ZM 296.89 177.41 C297.34,177.41 297.79,177.39 298.26,177.38 C295.32,177.79 292.60,178.41 290.74,179.21 C288.10,180.34 285.71,181.04 285.43,180.76 C285.71,181.04 288.18,180.31 290.90,179.14 C292.84,178.30 294.72,177.75 296.89,177.41 ZM 192.78 62.07 C196.28,59.78 199.39,58.00 199.93,58.00 C200.03,58.00 200.14,57.99 200.23,57.97 C197.61,59.19 195.14,60.55 192.78,62.07 ZM 171.32 177.03 C175.33,177.39 179.64,178.07 182.38,178.76 L 182.42 178.77 C179.64,178.10 175.15,177.44 171.09,177.03 C171.17,177.03 171.24,177.03 171.32,177.03 ZM 267.30 169.08 C269.61,165.66 271.00,161.81 271.00,158.28 C271.00,161.86 269.63,165.68 267.30,169.08 ZM 149.69 184.15 C148.97,184.63 148.44,184.63 147.81,184.22 C147.89,184.26 147.97,184.29 148.05,184.32 C148.57,184.53 149.08,184.47 149.69,184.15 ZM 250.35 190.07 C249.98,189.93 249.60,189.77 249.20,189.59 C249.48,189.70 249.77,189.79 250.07,189.89 C250.15,189.95 250.25,190.01 250.35,190.07 ZM 147.00 183.60 C147.00,183.61 147.01,183.62 147.02,183.62 C146.89,183.53 146.77,183.46 146.67,183.42 C146.77,183.46 146.88,183.52 147.00,183.60 ZM 328.26 182.76 C328.23,182.73 328.20,182.70 328.17,182.68 C328.20,182.70 328.23,182.73 328.26,182.76 Z" fill="rgb(129,125,88)"/>
<path d="M 107.00 305.86 C95.64,302.51 88.23,289.42 92.03,279.43 C93.37,275.89 97.50,271.03 101.39,268.40 C107.63,264.18 118.87,264.25 123.84,268.55 C126.12,270.53 126.26,270.94 124.84,271.50 C123.93,271.85 121.81,271.44 120.14,270.57 C116.41,268.64 109.32,268.54 105.01,270.36 C103.23,271.10 100.26,273.64 98.39,276.00 C95.36,279.82 95.00,280.95 95.00,286.46 C95.00,292.14 95.30,292.99 98.69,296.95 C104.80,304.08 112.78,305.93 120.50,302.00 C124.85,299.78 126.00,299.56 126.00,300.92 C126.00,302.62 119.53,305.82 115.00,306.36 C112.53,306.65 108.93,306.43 107.00,305.86 ZM 263.35 305.07 C257.44,302.39 253.21,297.53 251.42,291.38 C249.50,284.77 250.27,280.31 254.38,274.21 C258.66,267.85 262.98,265.53 270.58,265.52 C280.30,265.49 286.19,270.55 289.53,281.80 C290.84,286.22 290.80,287.08 289.01,292.06 C285.96,300.55 277.47,307.04 269.50,306.97 C268.40,306.96 265.63,306.11 263.35,305.07 ZM 276.32 301.88 C288.44,295.63 289.38,277.51 277.90,271.07 C267.55,265.24 254.02,273.52 254.01,285.68 C254.00,291.07 255.08,293.81 258.63,297.39 C263.73,302.52 271.32,304.45 276.32,301.88 ZM 138.00 304.84 C138.00,302.79 151.41,267.52 152.47,266.79 C153.04,266.39 154.04,266.62 154.70,267.29 C156.29,268.90 168.00,300.26 168.00,302.92 C168.00,306.31 165.96,305.30 164.30,301.09 C162.52,296.56 161.22,296.03 151.69,296.01 L 144.89 296.00 L 142.81 301.00 C140.95,305.48 138.00,307.84 138.00,304.84 ZM 160.72 292.88 C161.54,292.06 161.38,290.68 160.11,287.63 C159.16,285.36 157.78,281.58 157.03,279.24 C154.63,271.72 153.68,272.14 149.62,282.53 C147.57,287.76 146.18,292.48 146.51,293.02 C147.35,294.37 159.34,294.26 160.72,292.88 ZM 201.66 305.26 C200.84,303.93 200.56,268.52 201.36,267.23 C202.59,265.24 203.83,265.79 206.24,269.37 C214.60,281.84 217.11,284.89 218.52,284.35 C219.35,284.04 222.53,280.00 225.60,275.39 C229.35,269.75 231.81,267.00 233.09,267.00 C234.90,267.00 235.00,267.98 235.00,286.50 C235.00,303.17 234.78,306.00 233.50,306.00 C232.23,306.00 232.00,303.62 232.00,290.56 C232.00,282.07 231.65,274.90 231.22,274.64 C230.80,274.37 227.83,277.72 224.63,282.08 C221.43,286.44 218.45,290.00 218.00,290.00 C217.56,290.00 214.61,286.40 211.44,282.00 C208.27,277.60 205.30,274.00 204.84,274.00 C204.38,274.00 204.00,280.95 204.00,289.44 C204.00,303.00 203.28,307.88 201.66,305.26 ZM 330.93 304.76 C330.11,304.07 327.68,300.80 325.52,297.50 C323.37,294.20 318.66,287.47 315.06,282.55 L 308.50 273.59 L 308.22 288.00 C307.95,301.81 307.49,303.93 304.75,303.98 C304.34,303.99 304.00,295.67 304.00,285.50 C304.00,267.70 304.08,267.00 305.99,267.00 C307.28,267.00 309.55,269.18 312.47,273.25 C324.22,289.60 327.56,293.99 328.25,294.00 C328.66,294.00 329.34,294.00 329.75,294.01 C330.16,294.01 330.73,288.05 331.00,280.77 C331.44,269.12 331.71,267.48 333.27,267.18 C334.93,266.87 335.03,268.13 334.77,286.09 C334.50,305.45 334.09,307.44 330.93,304.76 ZM 351.46 300.54 C350.69,294.34 351.46,268.68 352.47,267.04 C354.04,264.50 355.00,267.69 355.00,275.48 C355.00,283.83 355.54,287.00 356.98,287.00 C357.39,287.00 362.63,282.28 368.62,276.52 C374.60,270.75 379.84,266.02 380.25,266.02 C382.76,265.96 380.06,270.49 374.00,276.50 C370.15,280.32 367.00,283.76 367.00,284.14 C367.00,284.51 370.14,288.80 373.98,293.66 C380.43,301.82 382.79,306.76 379.75,305.75 C379.07,305.52 375.58,301.58 372.00,297.00 C368.42,292.42 364.89,288.46 364.15,288.22 C363.42,287.97 361.06,289.49 358.91,291.59 C355.34,295.08 355.00,295.86 355.00,300.70 C355.00,304.63 354.63,306.00 353.57,306.00 C352.59,306.00 351.93,304.29 351.46,300.54 ZM 170.47 232.12 C160.25,229.61 154.72,226.56 149.00,220.31 C142.61,213.32 141.00,209.45 141.00,201.11 C141.00,195.67 141.45,193.80 143.50,190.79 C144.88,188.76 146.00,186.13 146.00,184.93 C146.00,183.16 146.26,182.97 147.43,183.94 C148.57,184.89 149.29,184.71 150.93,183.07 C152.07,181.93 153.49,181.00 154.10,181.00 C155.20,181.00 161.07,177.98 162.00,176.94 C162.98,175.84 180.56,177.76 184.40,179.38 C186.55,180.28 188.53,180.80 188.80,180.53 C189.07,180.26 188.14,177.44 186.74,174.27 C177.37,153.11 183.15,133.41 202.48,120.63 C204.67,119.18 207.38,118.00 208.51,118.00 C209.63,118.00 211.55,117.31 212.76,116.46 L 214.96 114.92 L 212.98 111.22 C210.59,106.76 210.30,96.61 212.42,91.53 C217.38,79.68 232.49,72.41 244.84,75.95 C250.60,77.61 257.83,83.95 260.75,89.92 C263.97,96.49 264.36,106.48 261.61,111.80 C260.68,113.59 260.15,115.44 260.44,115.91 C260.73,116.37 263.07,117.28 265.64,117.93 C268.21,118.58 271.26,119.76 272.41,120.57 C277.54,124.14 285.02,132.56 287.94,138.05 C293.67,148.78 293.19,166.02 286.88,176.88 C285.80,178.73 285.15,180.48 285.43,180.76 C285.71,181.04 288.10,180.34 290.74,179.21 C296.57,176.70 311.01,175.93 313.49,178.00 C314.35,178.70 315.33,179.00 315.68,178.66 C316.02,178.31 318.50,179.61 321.18,181.53 C325.10,184.35 326.16,184.74 326.63,183.52 C327.43,181.45 329.00,182.63 329.00,185.31 C329.01,186.51 330.13,189.71 331.50,192.42 C336.01,201.30 334.06,210.49 325.74,219.60 C317.35,228.77 307.48,232.75 291.00,233.61 C280.91,234.14 275.49,233.48 262.75,230.18 C257.07,228.71 246.42,223.31 242.62,219.97 C238.88,216.69 235.91,216.20 233.97,218.54 C231.99,220.92 220.97,226.78 213.37,229.48 C199.97,234.24 183.27,235.27 170.47,232.12 ZM 191.74 229.18 C192.54,228.67 190.19,227.24 185.20,225.20 C173.46,220.41 168.52,213.93 169.96,205.23 C171.06,198.57 180.15,192.02 188.32,192.01 C191.76,192.00 195.00,190.37 195.00,188.65 C195.00,187.94 192.24,186.05 188.86,184.43 C183.21,181.73 181.84,181.50 171.61,181.50 C159.61,181.50 156.50,182.45 150.66,187.86 C142.09,195.82 142.50,208.27 151.64,218.04 C156.73,223.49 164.12,227.44 167.59,226.57 C168.86,226.25 171.83,226.63 174.20,227.41 C182.07,230.01 189.29,230.74 191.74,229.18 ZM 298.98 227.93 C302.45,226.79 306.35,226.12 307.64,226.45 C311.27,227.36 316.53,224.60 322.43,218.70 C333.80,207.33 332.51,192.97 319.40,185.03 C309.82,179.22 297.58,179.20 285.25,184.97 C278.84,187.97 278.75,188.07 280.51,190.01 C281.67,191.30 283.59,192.00 285.91,192.00 C297.29,192.00 306.37,200.91 304.60,210.34 C303.38,216.80 295.44,223.27 283.69,227.36 C282.69,227.70 282.15,228.44 282.50,228.99 C283.54,230.68 292.31,230.12 298.98,227.93 ZM 212.33 224.03 C218.25,223.06 232.21,217.09 233.52,214.97 C234.77,212.94 231.92,210.88 217.51,203.38 C206.65,197.72 199.53,195.64 191.00,195.65 C179.51,195.67 174.00,199.44 174.00,207.29 C174.00,213.71 176.67,217.06 185.00,221.13 C192.71,224.90 201.42,225.82 212.33,224.03 ZM 287.50 221.94 C296.88,217.71 301.00,213.29 301.00,207.45 C301.00,204.06 297.68,199.40 293.84,197.42 C289.95,195.40 277.99,195.33 271.45,197.28 C261.93,200.11 243.51,209.75 241.55,212.92 C240.96,213.88 245.48,217.70 249.93,220.01 C259.79,225.11 278.36,226.06 287.50,221.94 ZM 247.06 203.86 C252.56,199.93 257.29,196.34 257.57,195.88 C257.85,195.43 256.83,194.78 255.29,194.43 C246.49,192.44 244.59,191.59 241.03,188.03 L 237.16 184.16 L 235.33 186.23 C232.42,189.52 224.85,193.99 222.05,194.07 C220.65,194.11 218.65,194.47 217.61,194.88 C216.02,195.51 216.60,196.20 221.37,199.37 C224.47,201.43 229.06,204.89 231.56,207.06 C234.07,209.23 236.33,211.00 236.60,211.00 C236.86,211.00 241.57,207.79 247.06,203.86 ZM 224.18 189.83 C228.24,188.61 234.40,182.69 233.72,180.66 C233.49,179.98 231.06,179.47 227.91,179.43 C219.79,179.32 214.71,177.47 210.25,173.02 C205.87,168.64 201.91,158.69 203.79,156.81 C205.42,155.18 206.68,156.62 207.37,160.90 C208.19,166.05 215.43,173.50 221.10,175.03 C225.82,176.30 231.50,174.69 233.59,171.50 C234.35,170.34 235.19,164.57 235.60,157.72 C236.53,142.10 238.32,142.47 239.00,158.42 L 239.50 170.17 L 242.77 173.09 C246.79,176.68 249.39,176.73 256.46,173.39 C262.49,170.53 265.45,166.82 266.78,160.42 C267.72,155.86 271.00,154.20 271.00,158.28 C271.00,164.92 266.07,172.70 259.38,176.63 C254.27,179.62 244.49,180.42 242.98,177.97 C242.32,176.89 241.79,176.81 240.96,177.64 C238.97,179.63 243.42,186.66 248.21,189.11 C251.65,190.86 253.59,191.15 259.12,190.76 C267.32,190.17 272.79,187.25 279.33,179.98 C285.93,172.63 288.51,165.52 288.25,155.35 C287.96,143.84 285.25,136.97 278.30,130.16 C271.00,122.99 257.00,116.58 257.00,120.39 C257.00,121.28 256.48,122.00 255.85,122.00 C255.22,122.00 252.18,123.24 249.10,124.75 C244.73,126.89 242.07,127.50 237.00,127.50 C231.93,127.50 229.27,126.89 224.90,124.75 C221.82,123.24 218.80,122.00 218.18,122.00 C217.57,122.00 217.32,121.32 217.64,120.50 C218.06,119.41 217.52,119.00 215.67,119.00 C214.26,119.00 212.87,119.40 212.57,119.89 C212.27,120.38 210.85,121.07 209.43,121.43 C205.86,122.32 199.26,126.80 195.30,131.00 C189.68,136.97 186.79,144.31 186.24,154.00 C185.80,161.61 186.05,163.29 188.49,169.52 C194.84,185.66 209.76,194.15 224.18,189.83 ZM 245.76 122.30 C249.32,120.62 253.69,115.93 255.07,112.33 C255.59,110.96 256.49,110.25 257.32,110.57 C258.34,110.96 258.89,109.85 259.36,106.41 C260.89,95.26 259.82,91.78 252.95,85.58 C245.88,79.18 238.85,77.55 229.50,80.11 C223.43,81.77 216.51,89.38 215.10,95.95 C214.49,98.80 214.22,102.22 214.50,103.56 C214.77,104.90 215.24,107.14 215.53,108.54 C215.82,109.94 216.48,110.82 216.99,110.51 C217.50,110.19 218.80,111.63 219.86,113.71 C224.90,123.53 235.61,127.08 245.76,122.30 ZM 175.00 73.67 C175.00,70.96 183.36,63.68 191.64,59.18 C195.83,56.90 199.65,55.28 200.13,55.58 C201.35,56.34 201.21,58.00 199.93,58.00 C199.33,58.00 195.66,60.14 191.75,62.75 C187.85,65.36 183.80,68.01 182.76,68.62 C181.72,69.24 179.55,71.01 177.94,72.56 C175.60,74.80 175.00,75.02 175.00,73.67 ZM 295.40 71.87 C294.36,70.70 290.46,67.74 286.76,65.28 C279.41,60.43 278.00,59.00 280.54,59.00 C284.28,59.00 299.00,70.53 299.00,73.46 C299.00,74.67 297.19,73.87 295.40,71.87 ZM 223.00 92.56 C223.00,90.89 226.75,88.00 228.91,88.00 C229.88,88.00 229.41,89.01 227.50,91.00 C224.34,94.30 223.00,94.76 223.00,92.56 ZM 246.50 91.00 C243.98,88.37 243.86,88.00 245.56,88.03 C247.92,88.07 250.40,89.89 251.28,92.25 C252.32,95.03 249.71,94.35 246.50,91.00 Z" fill="rgb(161,147,92)"/>
</g>
</svg>